<?xml version="1.0" encoding="UTF-8" standalone="no"?>
<!DOCTYPE svg PUBLIC "-//W3C//DTD SVG 1.1//EN"
 "http://www.w3.org/Graphics/SVG/1.1/DTD/svg11.dtd">
<!-- Generated by graphviz version 2.40.1 (20161225.0304)
 -->
<!-- Title: G Pages: 1 -->
<svg width="589pt" height="197pt"
 viewBox="0.00 0.00 589.31 197.04" xmlns="http://www.w3.org/2000/svg" xmlns:xlink="http://www.w3.org/1999/xlink">
<g id="graph0" class="graph" transform="scale(1 1) rotate(0) translate(4 193.0439)">
<title>G</title>
<polygon fill="#ffffff" stroke="transparent" points="-4,4 -4,-193.0439 585.307,-193.0439 585.307,4 -4,4"/>
<!-- 200 -->
<g id="node1" class="node">
<title>200</title>
<ellipse fill="none" stroke="#000000" cx="29.5219" cy="-131.5219" rx="25.5409" ry="25.5409"/>
<ellipse fill="none" stroke="#000000" cx="29.5219" cy="-131.5219" rx="29.5439" ry="29.5439"/>
<text text-anchor="middle" x="29.5219" y="-127.3219" font-family="Times,serif" font-size="14.00" fill="#000000">200</text>
</g>
<!-- 110 -->
<g id="node2" class="node">
<title>110</title>
<ellipse fill="none" stroke="#000000" cx="120.5658" cy="-131.5219" rx="25.5439" ry="25.5439"/>
<text text-anchor="middle" x="120.5658" y="-127.3219" font-family="Times,serif" font-size="14.00" fill="#000000">110</text>
</g>
<!-- 200&#45;&gt;110 -->
<g id="edge1" class="edge">
<title>200&#45;&gt;110</title>
<path fill="none" stroke="#000000" d="M58.5791,-125.1807C67.182,-124.7352 76.6916,-124.6538 85.6256,-124.9367"/>
<polygon fill="#000000" stroke="#000000" points="85.5998,-128.4396 95.76,-125.4361 85.9444,-121.4481 85.5998,-128.4396"/>
</g>
<!-- 110&#45;&gt;200 -->
<g id="edge3" class="edge">
<title>110&#45;&gt;200</title>
<path fill="none" stroke="#000000" d="M95.76,-137.6078C87.4138,-138.1819 77.8866,-138.3838 68.7097,-138.2135"/>
<polygon fill="#000000" stroke="#000000" points="68.6941,-134.711 58.5791,-137.8631 68.4521,-141.7068 68.6941,-134.711"/>
</g>
<!-- 020 -->
<g id="node3" class="node">
<title>020</title>
<ellipse fill="none" stroke="#000000" cx="381.6973" cy="-163.5219" rx="25.5439" ry="25.5439"/>
<text text-anchor="middle" x="381.6973" y="-159.3219" font-family="Times,serif" font-size="14.00" fill="#000000">020</text>
</g>
<!-- 110&#45;&gt;020 -->
<g id="edge2" class="edge">
<title>110&#45;&gt;020</title>
<path fill="none" stroke="#000000" d="M146.0796,-130.4373C193.1224,-133.0145 293.5767,-145.1386 346.8505,-154.4826"/>
<polygon fill="#000000" stroke="#000000" points="346.3799,-157.9545 356.8464,-156.3107 347.6393,-151.0688 346.3799,-157.9545"/>
</g>
<!-- 101 -->
<g id="node4" class="node">
<title>101</title>
<ellipse fill="none" stroke="#000000" cx="207.6096" cy="-100.5219" rx="25.5439" ry="25.5439"/>
<text text-anchor="middle" x="207.6096" y="-96.3219" font-family="Times,serif" font-size="14.00" fill="#000000">101</text>
</g>
<!-- 110&#45;&gt;101 -->
<g id="edge4" class="edge">
<title>110&#45;&gt;101</title>
<path fill="none" stroke="#000000" d="M142.5306,-117.7469C151.5205,-113.8206 162.152,-109.8034 172.1879,-106.4921"/>
<polygon fill="#000000" stroke="#000000" points="173.4405,-109.7677 181.9424,-103.4457 171.3536,-103.086 173.4405,-109.7677"/>
</g>
<!-- 020&#45;&gt;110 -->
<g id="edge5" class="edge">
<title>020&#45;&gt;110</title>
<path fill="none" stroke="#000000" d="M355.8498,-164.5882C308.5697,-161.9668 208.1469,-149.8333 155.0838,-140.5035"/>
<polygon fill="#000000" stroke="#000000" points="155.5997,-137.0398 145.1324,-138.6785 154.337,-143.925 155.5997,-137.0398"/>
</g>
<!-- 011 -->
<g id="node5" class="node">
<title>011</title>
<ellipse fill="none" stroke="#000000" cx="294.6535" cy="-100.5219" rx="25.5439" ry="25.5439"/>
<text text-anchor="middle" x="294.6535" y="-96.3219" font-family="Times,serif" font-size="14.00" fill="#000000">011</text>
</g>
<!-- 020&#45;&gt;011 -->
<g id="edge6" class="edge">
<title>020&#45;&gt;011</title>
<path fill="none" stroke="#000000" d="M358.3873,-152.707C346.7331,-145.1331 332.5933,-134.9586 320.5958,-125.5329"/>
<polygon fill="#000000" stroke="#000000" points="322.6735,-122.7124 312.689,-119.1683 318.2842,-128.1652 322.6735,-122.7124"/>
</g>
<!-- 101&#45;&gt;110 -->
<g id="edge12" class="edge">
<title>101&#45;&gt;110</title>
<path fill="none" stroke="#000000" d="M185.9673,-114.1558C176.9315,-118.1174 166.1949,-122.1814 156.0601,-125.5278"/>
<polygon fill="#000000" stroke="#000000" points="154.7124,-122.2819 146.211,-128.6046 156.7998,-128.9635 154.7124,-122.2819"/>
</g>
<!-- 101&#45;&gt;011 -->
<g id="edge11" class="edge">
<title>101&#45;&gt;011</title>
<path fill="none" stroke="#000000" d="M232.7863,-94.3359C241.1588,-93.7898 250.6399,-93.6403 259.6195,-93.8873"/>
<polygon fill="#000000" stroke="#000000" points="259.683,-97.3939 269.834,-94.3595 260.0063,-90.4014 259.683,-97.3939"/>
</g>
<!-- 011&#45;&gt;020 -->
<g id="edge10" class="edge">
<title>011&#45;&gt;020</title>
<path fill="none" stroke="#000000" d="M317.9796,-111.3473C329.6816,-118.9532 343.8865,-129.1785 355.912,-138.6343"/>
<polygon fill="#000000" stroke="#000000" points="353.8489,-141.4668 363.8315,-145.0161 358.2411,-136.0162 353.8489,-141.4668"/>
</g>
<!-- 011&#45;&gt;101 -->
<g id="edge9" class="edge">
<title>011&#45;&gt;101</title>
<path fill="none" stroke="#000000" d="M269.834,-106.6843C261.4934,-107.2417 252.0212,-107.4026 243.0277,-107.1668"/>
<polygon fill="#000000" stroke="#000000" points="242.933,-103.6592 232.7863,-106.7079 242.6196,-110.6521 242.933,-103.6592"/>
</g>
<!-- 002 -->
<g id="node6" class="node">
<title>002</title>
<ellipse fill="none" stroke="#000000" cx="381.6973" cy="-94.5219" rx="25.5439" ry="25.5439"/>
<text text-anchor="middle" x="381.6973" y="-90.3219" font-family="Times,serif" font-size="14.00" fill="#000000">002</text>
</g>
<!-- 011&#45;&gt;002 -->
<g id="edge7" class="edge">
<title>011&#45;&gt;002</title>
<path fill="none" stroke="#000000" d="M319.3639,-92.6635C327.6728,-91.5314 337.1144,-90.7157 346.0911,-90.3265"/>
<polygon fill="#000000" stroke="#000000" points="346.4097,-93.8198 356.3196,-90.0722 346.2357,-86.8219 346.4097,-93.8198"/>
</g>
<!-- 010 -->
<g id="node7" class="node">
<title>010</title>
<ellipse fill="none" stroke="#000000" cx="381.6973" cy="-25.5219" rx="25.5439" ry="25.5439"/>
<text text-anchor="middle" x="381.6973" y="-21.3219" font-family="Times,serif" font-size="14.00" fill="#000000">010</text>
</g>
<!-- 011&#45;&gt;010 -->
<g id="edge13" class="edge">
<title>011&#45;&gt;010</title>
<path fill="none" stroke="#000000" d="M314.4051,-83.5033C326.285,-73.2671 341.5735,-60.094 354.575,-48.8915"/>
<polygon fill="#000000" stroke="#000000" points="357.0326,-51.3939 362.3237,-42.2149 352.4633,-46.0909 357.0326,-51.3939"/>
</g>
<!-- 002&#45;&gt;011 -->
<g id="edge8" class="edge">
<title>002&#45;&gt;011</title>
<path fill="none" stroke="#000000" d="M357.1774,-102.3543C348.7015,-103.5166 339.029,-104.349 329.8668,-104.7341"/>
<polygon fill="#000000" stroke="#000000" points="329.7442,-101.2359 319.8302,-104.9725 329.9105,-108.234 329.7442,-101.2359"/>
</g>
<!-- 001 -->
<g id="node8" class="node">
<title>001</title>
<ellipse fill="none" stroke="#000000" cx="468.7412" cy="-94.5219" rx="25.5439" ry="25.5439"/>
<text text-anchor="middle" x="468.7412" y="-90.3219" font-family="Times,serif" font-size="14.00" fill="#000000">001</text>
</g>
<!-- 002&#45;&gt;001 -->
<g id="edge14" class="edge">
<title>002&#45;&gt;001</title>
<path fill="none" stroke="#000000" d="M407.3426,-94.5219C415.3286,-94.5219 424.2867,-94.5219 432.8395,-94.5219"/>
<polygon fill="#000000" stroke="#000000" points="432.9785,-98.022 442.9784,-94.5219 432.9784,-91.022 432.9785,-98.022"/>
</g>
<!-- 010&#45;&gt;001 -->
<g id="edge17" class="edge">
<title>010&#45;&gt;001</title>
<path fill="none" stroke="#000000" d="M404.5671,-37.6276C416.6323,-46.2743 431.4542,-57.9749 443.8128,-68.5914"/>
<polygon fill="#000000" stroke="#000000" points="441.7025,-71.3964 451.5246,-75.3684 446.3233,-66.1382 441.7025,-71.3964"/>
</g>
<!-- 100 -->
<g id="node10" class="node">
<title>100</title>
<ellipse fill="none" stroke="#000000" cx="468.7412" cy="-25.5219" rx="25.5439" ry="25.5439"/>
<text text-anchor="middle" x="468.7412" y="-21.3219" font-family="Times,serif" font-size="14.00" fill="#000000">100</text>
</g>
<!-- 010&#45;&gt;100 -->
<g id="edge16" class="edge">
<title>010&#45;&gt;100</title>
<path fill="none" stroke="#000000" d="M406.874,-19.3359C415.2465,-18.7898 424.7276,-18.6403 433.7072,-18.8873"/>
<polygon fill="#000000" stroke="#000000" points="433.7707,-22.3939 443.9217,-19.3595 434.094,-15.4014 433.7707,-22.3939"/>
</g>
<!-- 001&#45;&gt;010 -->
<g id="edge18" class="edge">
<title>001&#45;&gt;010</title>
<path fill="none" stroke="#000000" d="M445.9709,-82.4875C433.8879,-73.834 419.0186,-62.0984 406.6261,-51.4528"/>
<polygon fill="#000000" stroke="#000000" points="408.7164,-48.6302 398.8944,-44.6578 404.0954,-53.8882 408.7164,-48.6302"/>
</g>
<!-- 000 -->
<g id="node9" class="node">
<title>000</title>
<ellipse fill="none" stroke="#000000" cx="555.785" cy="-94.5219" rx="25.5439" ry="25.5439"/>
<text text-anchor="middle" x="555.785" y="-90.3219" font-family="Times,serif" font-size="14.00" fill="#000000">000</text>
</g>
<!-- 001&#45;&gt;000 -->
<g id="edge15" class="edge">
<title>001&#45;&gt;000</title>
<path fill="none" stroke="#000000" d="M494.3864,-94.5219C502.3725,-94.5219 511.3305,-94.5219 519.8833,-94.5219"/>
<polygon fill="#000000" stroke="#000000" points="520.0223,-98.022 530.0223,-94.5219 520.0223,-91.022 520.0223,-98.022"/>
</g>
<!-- 100&#45;&gt;010 -->
<g id="edge19" class="edge">
<title>100&#45;&gt;010</title>
<path fill="none" stroke="#000000" d="M443.9217,-31.6843C435.5811,-32.2417 426.1089,-32.4026 417.1154,-32.1668"/>
<polygon fill="#000000" stroke="#000000" points="417.0207,-28.6592 406.874,-31.7079 416.7073,-35.6521 417.0207,-28.6592"/>
</g>
</g>
</svg>
